<svg id="e832d449-9df7-46c5-bfab-d8eeeb6429f2" data-name="Layer 1" xmlns="http://www.w3.org/2000/svg" viewBox="0 0 202.56 123.28"><defs><style>.\33 d8f8722-0927-4cd7-9e86-204a8ea898ec{opacity:0.8;}.\32 cbb2d41-41ad-41a0-9c4b-30550af65abd{fill:#f2f2f2;}.\38 e79b86b-6375-4f73-bc6c-93e7d33039c1{fill:#d5d5d5;stroke:#d5d5d5;stroke-miterlimit:10;}.\37 d3afa72-3383-499d-b8f7-4bcaef585f98{fill:#757575;}</style></defs><title>footer</title><g class="3d8f8722-0927-4cd7-9e86-204a8ea898ec"><polygon class="2cbb2d41-41ad-41a0-9c4b-30550af65abd" points="166.89 1.31 166.89 11.66 186.78 11.66 117.72 88.94 86.66 54.2 51.64 93.39 36.11 76.02 0.4 115.97 6.94 123.28 36.11 90.64 51.64 108.01 86.66 68.82 117.72 103.57 193.32 18.97 193.32 41.23 202.56 41.23 202.56 1.31 166.89 1.31"/></g><path class="8e79b86b-6375-4f73-bc6c-93e7d33039c1" d="M229.35,77.84v1.73H202.28V29h2V77.84Z" transform="translate(-150.92 -28.45)"/><path class="8e79b86b-6375-4f73-bc6c-93e7d33039c1" d="M252.5,63a24.24,24.24,0,0,1-1,7.45,15,15,0,0,1-3,5.37,12.22,12.22,0,0,1-4.65,3.24,16.18,16.18,0,0,1-6,1.08,20.91,20.91,0,0,1-6.41-1.08c0-.15,0-.3.08-.45s0-.32.07-.49.1-.24.16-.36.22-.18.49-.18a3,3,0,0,1,.79.14c.31.1.68.2,1.11.31s.94.21,1.52.31a13.37,13.37,0,0,0,2,.14,14.33,14.33,0,0,0,5.33-.95,10.45,10.45,0,0,0,4-2.88,13.45,13.45,0,0,0,2.55-4.83,22.91,22.91,0,0,0,.9-6.78V29h2Z" transform="translate(-150.92 -28.45)"/><path class="8e79b86b-6375-4f73-bc6c-93e7d33039c1" d="M281.73,29Q290,29,294,32.27t4,9.39a10.8,10.8,0,0,1-.8,4.09,12.43,12.43,0,0,1-2.21,3.58,13.23,13.23,0,0,1-3.46,2.77,14.42,14.42,0,0,1-4.51,1.62A20.55,20.55,0,0,1,292.64,55a13.77,13.77,0,0,1,4.16,2.55,10.51,10.51,0,0,1,2.61,3.71,12.21,12.21,0,0,1,.9,4.77,14,14,0,0,1-1.12,5.74A11.17,11.17,0,0,1,295.93,76a14.87,14.87,0,0,1-5.23,2.63,25.36,25.36,0,0,1-7.06.9H268V29ZM270,30.54V53.18h12a18.33,18.33,0,0,0,6.5-1,13,13,0,0,0,4.39-2.67,10,10,0,0,0,2.49-3.67,11.31,11.31,0,0,0,.77-4c0-3.63-1.18-6.41-3.54-8.36s-6-2.91-10.86-2.91ZM283.64,78q7.1,0,10.89-3t3.8-8.88a10.45,10.45,0,0,0-1-4.71,10.2,10.2,0,0,0-2.91-3.57,13.69,13.69,0,0,0-4.61-2.26,21.77,21.77,0,0,0-6.1-.8H270V78Z" transform="translate(-150.92 -28.45)"/><path class="7d3afa72-3383-499d-b8f7-4bcaef585f98" d="M155.57,96.75v12h14.14v3.79H155.57v14.78h-4.65V93h21.19v3.8Z" transform="translate(-150.92 -28.45)"/><path class="7d3afa72-3383-499d-b8f7-4bcaef585f98" d="M182.71,127.34h-4.65V93h4.65Z" transform="translate(-150.92 -28.45)"/><path class="7d3afa72-3383-499d-b8f7-4bcaef585f98" d="M219.36,93v34.39H217a2,2,0,0,1-.93-.19,2.27,2.27,0,0,1-.73-.65l-19.9-25.92c0,.4.06.8.08,1.18s0,.74,0,1.08v24.5H191.5V93h2.4a2.72,2.72,0,0,1,.53,0,1.13,1.13,0,0,1,.38.12,2.14,2.14,0,0,1,.34.24,3,3,0,0,1,.36.4l19.89,25.89c0-.42-.06-.82-.08-1.21s0-.76,0-1.12V93Z" transform="translate(-150.92 -28.45)"/><path class="7d3afa72-3383-499d-b8f7-4bcaef585f98" d="M256.11,127.34h-3.6a1.52,1.52,0,0,1-1-.31,1.85,1.85,0,0,1-.58-.79l-3.21-8.3H232.27l-3.21,8.3a1.7,1.7,0,0,1-.55.77,1.57,1.57,0,0,1-1,.33h-3.6L237.65,93h4.7Zm-9.7-12.76-5.4-14c-.16-.41-.33-.9-.5-1.45s-.35-1.14-.51-1.76a25.11,25.11,0,0,1-1,3.24l-5.4,14Z" transform="translate(-150.92 -28.45)"/><path class="7d3afa72-3383-499d-b8f7-4bcaef585f98" d="M288.51,93v34.39h-2.33a2,2,0,0,1-.93-.19,2.37,2.37,0,0,1-.73-.65l-19.89-25.92c0,.4.05.8.07,1.18s0,.74,0,1.08v24.5h-4.08V93H263a2.66,2.66,0,0,1,.53,0,1.13,1.13,0,0,1,.38.12,1.51,1.51,0,0,1,.34.24,3,3,0,0,1,.36.4l19.9,25.89c0-.42-.06-.82-.09-1.21s0-.76,0-1.12V93Z" transform="translate(-150.92 -28.45)"/><path class="7d3afa72-3383-499d-b8f7-4bcaef585f98" d="M321.43,120.24a.9.9,0,0,1,.68.31l1.84,2a14.5,14.5,0,0,1-5.12,3.82,17.58,17.58,0,0,1-7.28,1.37,16.92,16.92,0,0,1-6.72-1.29,14.55,14.55,0,0,1-5.16-3.6,16.22,16.22,0,0,1-3.32-5.55,20.87,20.87,0,0,1-1.17-7.13A20.17,20.17,0,0,1,296.4,103a16.47,16.47,0,0,1,3.45-5.57,15.49,15.49,0,0,1,5.31-3.61A17.84,17.84,0,0,1,312,92.57a16.54,16.54,0,0,1,6.48,1.18,16.24,16.24,0,0,1,4.95,3.19l-1.54,2.13a1.29,1.29,0,0,1-.37.4,1.1,1.1,0,0,1-.61.16,1.94,1.94,0,0,1-1.06-.47,16.24,16.24,0,0,0-1.63-1,13.52,13.52,0,0,0-11.11-.59,10.68,10.68,0,0,0-3.81,2.68,12.38,12.38,0,0,0-2.48,4.27,17.12,17.12,0,0,0-.89,5.69,16.78,16.78,0,0,0,.92,5.74,12.8,12.8,0,0,0,2.52,4.26,10.71,10.71,0,0,0,3.77,2.65,12,12,0,0,0,4.69.91,19.47,19.47,0,0,0,2.78-.18,11.88,11.88,0,0,0,2.28-.56,9.54,9.54,0,0,0,1.94-1,13.86,13.86,0,0,0,1.79-1.4A1.23,1.23,0,0,1,321.43,120.24Z" transform="translate(-150.92 -28.45)"/><path class="7d3afa72-3383-499d-b8f7-4bcaef585f98" d="M350.57,123.55l0,3.79H329.35V93h21.19v3.8H334v11.42H347.4v3.65H334v11.73Z" transform="translate(-150.92 -28.45)"/></svg>