<svg height="682pt" viewBox="-37 -21 682 682.66669" width="682pt" xmlns="http://www.w3.org/2000/svg"><path d="m522.605469 326.875v73.988281h-37.5v-36.488281h-163.511719v38.589844h-37.5v-38.589844h-163.515625v36.488281h-37.5v-73.988281h201.015625v-61.125h37.5v61.125zm0 0" fill="#ffe670"/><path d="m522.605469 326.875v73.988281h-37.5v-36.488281h-163.511719v38.589844h-18.75v-137.214844h18.75v61.125zm0 0" fill="#ffdf48"/><path d="m50.34375 0h505v289.375h-505zm0 0" fill="#83e46f"/><path d="m302.84375 0h252.5v289.375h-252.5zm0 0" fill="#59ce45"/><path d="m98.679688 42.597656h408.324218v197.929688h-408.324218zm0 0" fill="#00a753"/><path d="m201.644531 571.945312v68.054688h-202.394531v-68.054688c0-33.523437 27.269531-60.792968 60.792969-60.792968h9.316406c-18.894531-10.859375-31.65625-31.234375-31.65625-54.535156 0-34.628907 28.144531-62.808594 62.75-62.867188h.117187c34.660157 0 62.863282 28.203125 62.863282 62.867188 0 23.300781-12.757813 43.675781-31.652344 54.535156h9.070312c33.527344 0 60.792969 27.269531 60.792969 60.792968zm0 0" fill="#fcbe00"/><path d="m201.644531 571.945312v68.054688h-101.1875v-246.25h.113281c34.660157 0 62.863282 28.203125 62.863282 62.867188 0 23.304687-12.757813 43.679687-31.652344 54.539062h9.074219c33.523437-.003906 60.789062 27.265625 60.789062 60.789062zm0 0" fill="#ff9e00"/><path d="m404.039062 571.945312v68.054688h-202.394531v-68.054688c0-33.523437 27.269531-60.792968 60.789063-60.792968h9.320312c-18.894531-10.859375-31.652344-31.234375-31.652344-54.535156 0-34.628907 28.144532-62.808594 62.746094-62.867188h.117188c34.664062 0 62.867187 28.203125 62.867187 62.867188 0 23.300781-12.761719 43.675781-31.65625 54.535156h9.074219c33.519531 0 60.789062 27.269531 60.789062 60.792968zm0 0" fill="#fcbe00"/><path d="m404.039062 571.945312v68.054688h-101.191406v-246.25h.117188c34.664062 0 62.867187 28.203125 62.867187 62.867188 0 23.304687-12.761719 43.679687-31.65625 54.539062h9.074219c33.519531-.003906 60.789062 27.265625 60.789062 60.789062zm0 0" fill="#ff9e00"/><path d="m606.433594 571.945312v68.054688h-202.394532v-68.054688c0-33.523437 27.273438-60.792968 60.792969-60.792968h9.316407c-18.890626-10.859375-31.65625-31.234375-31.65625-54.535156 0-34.628907 28.144531-62.808594 62.75-62.867188h.117187c34.664063 0 62.867187 28.203125 62.867187 62.867188 0 23.300781-12.761718 43.675781-31.65625 54.535156h9.070313c33.527344 0 60.792969 27.269531 60.792969 60.792968zm0 0" fill="#fcbe00"/><path d="m606.433594 571.945312v68.054688h-101.191406v-246.25h.117187c34.664063 0 62.867187 28.203125 62.867187 62.867188 0 23.304687-12.761718 43.679687-31.65625 54.539062h9.070313c33.527344-.003906 60.792969 27.265625 60.792969 60.789062zm0 0" fill="#ff9e00"/><path d="m302.84375 42.597656h204.160156v197.929688h-204.160156zm0 0" fill="#007f40"/><path d="m376.804688 144.6875c0 40.785156-33.175782 73.964844-73.960938 73.964844-40.789062 0-73.964844-33.179688-73.964844-73.964844s33.175782-73.964844 73.964844-73.964844c40.785156 0 73.960938 33.179688 73.960938 73.964844zm0 0" fill="#b6efab"/><path d="m302.84375 218.652344v-147.929688c40.785156 0 73.960938 33.179688 73.960938 73.964844s-33.175782 73.964844-73.960938 73.964844zm0 0" fill="#83e46f"/></svg>