<svg xmlns="http://www.w3.org/2000/svg" height="512pt" version="1.1" viewBox="0 -16 512.00052 512" width="512pt">
<g id="surface1">
<path d="M 500.023438 384.550781 L 377.445312 471.304688 C 372.34375 474.609375 366.9375 476.710938 361.234375 478.210938 C 356.433594 479.710938 351.027344 480.3125 345.925781 480.3125 C 345.925781 480.3125 295.492188 480.3125 256.167969 480.3125 L 210.234375 480.3125 C 198.832031 480.3125 187.121094 477.609375 176.613281 472.503906 L 60.039062 414.570312 L 60.039062 240.15625 L 147.796875 240.15625 C 162.804688 240.15625 177.214844 244.65625 189.523438 252.765625 L 256.167969 297.191406 L 260.671875 300.195312 L 331.214844 300.195312 C 347.726562 300.195312 361.234375 313.703125 361.234375 330.214844 C 361.234375 346.726562 347.726562 360.234375 331.214844 360.234375 L 193.125 360.234375 C 184.71875 360.234375 178.117188 366.835938 178.117188 375.242188 C 178.117188 383.648438 184.417969 389.953125 192.824219 390.253906 L 364.835938 390.253906 C 367.238281 390.253906 369.640625 389.652344 372.042969 388.453125 L 464 336.515625 C 479.609375 325.109375 497.023438 330.515625 506.027344 342.519531 C 515.933594 355.730469 513.234375 374.640625 500.023438 384.550781 Z M 500.023438 384.550781 " style=" stroke:none;fill-rule:nonzero;fill:rgb(100%,74.901961%,67.058824%);fill-opacity:1;" />
<path d="M 256.167969 0 C 214.738281 0 181.117188 33.621094 181.117188 75.050781 C 181.117188 116.476562 214.738281 150.097656 256.167969 150.097656 C 297.59375 150.097656 331.214844 116.476562 331.214844 75.050781 C 331.214844 33.621094 297.59375 0 256.167969 0 Z M 256.167969 0 " style=" stroke:none;fill-rule:nonzero;fill:rgb(100%,83.137255%,0%);fill-opacity:1;" />
<path d="M 361.234375 150.097656 C 328.214844 150.097656 301.195312 177.113281 301.195312 210.136719 C 301.195312 243.15625 328.214844 270.175781 361.234375 270.175781 C 394.253906 270.175781 421.273438 243.15625 421.273438 210.136719 C 421.273438 177.113281 394.253906 150.097656 361.234375 150.097656 Z M 361.234375 150.097656 " style=" stroke:none;fill-rule:nonzero;fill:rgb(100%,83.137255%,0%);fill-opacity:1;" />
<path d="M 45.027344 450.292969 L 15.007812 450.292969 C 6.714844 450.292969 0 443.578125 0 435.28125 L 0 225.144531 C 0 216.851562 6.714844 210.136719 15.007812 210.136719 L 45.027344 210.136719 C 69.859375 210.136719 90.058594 230.335938 90.058594 255.164062 L 90.058594 405.261719 C 90.058594 430.09375 69.859375 450.292969 45.027344 450.292969 Z M 45.027344 450.292969 " style=" stroke:none;fill-rule:nonzero;fill:rgb(29.019608%,41.176471%,43.529412%);fill-opacity:1;" />
<path d="M 361.234375 270.175781 L 361.234375 150.097656 C 394.253906 150.097656 421.273438 177.113281 421.273438 210.136719 C 421.273438 243.15625 394.253906 270.175781 361.234375 270.175781 Z M 361.234375 270.175781 " style=" stroke:none;fill-rule:nonzero;fill:rgb(99.215686%,74.901961%,0%);fill-opacity:1;" />
<path d="M 256.167969 150.097656 L 256.167969 0 C 297.59375 0 331.214844 33.621094 331.214844 75.050781 C 331.214844 116.476562 297.59375 150.097656 256.167969 150.097656 Z M 256.167969 150.097656 " style=" stroke:none;fill-rule:nonzero;fill:rgb(99.215686%,74.901961%,0%);fill-opacity:1;" />
<path d="M 331.214844 360.234375 L 256.167969 360.234375 L 256.167969 297.191406 L 260.671875 300.195312 L 331.214844 300.195312 C 347.726562 300.195312 361.234375 313.703125 361.234375 330.214844 C 361.234375 346.726562 347.726562 360.234375 331.214844 360.234375 Z M 331.214844 360.234375 " style=" stroke:none;fill-rule:nonzero;fill:rgb(100%,65.490196%,56.078431%);fill-opacity:1;" />
<path d="M 500.023438 384.550781 L 377.445312 471.304688 C 372.34375 474.609375 366.9375 476.710938 361.234375 478.210938 C 356.433594 479.710938 351.027344 480.3125 345.925781 480.3125 C 345.925781 480.3125 295.492188 480.3125 256.167969 480.3125 L 256.167969 390.253906 L 364.835938 390.253906 C 367.238281 390.253906 369.640625 389.652344 372.042969 388.449219 L 464.003906 336.515625 C 479.613281 325.109375 497.023438 330.511719 506.027344 342.519531 C 515.933594 355.730469 513.234375 374.640625 500.023438 384.550781 Z M 500.023438 384.550781 " style=" stroke:none;fill-rule:nonzero;fill:rgb(100%,65.490196%,56.078431%);fill-opacity:1;" />
</g>
</svg>