<svg id="f9c5391d-083c-4936-afd8-7f92fbc0566e" data-name="Layer 1" xmlns="http://www.w3.org/2000/svg" xmlns:xlink="http://www.w3.org/1999/xlink" viewBox="0 0 126.5 136"><defs><style>.a2c89b7d-97cd-4ee8-8327-85cf97e025fb{fill:none;}.b7cfe466-b63b-4c56-a2c1-ef16f7b61e9e{clip-path:url(#eaab8021-0577-4d6e-9969-1238812b6765);}.a0c36f06-43db-4e81-9797-46b2ed673aab{fill:#1e1e1e;}.b506bcff-0608-4caa-8e0a-8579bba28720{fill:#333;}.bfb565cc-49df-4daf-8e80-cd04f99c1df6{fill:#353535;}.a806a4ea-7d97-4197-8b31-8ad653709aa7{fill:#36363a;}.abbee553-1304-4eeb-8056-33afa1471d65{fill:#38383f;}.b29dabc2-298c-4a19-8c61-9f8c0feeaa8d{fill:#3a3a47;}.aa8f7dbb-554c-411f-b2df-002f43222590{fill:#3c3c5b;}.b5f6feb7-a333-47eb-a727-c180df783352{fill:#343470;}.a47f2243-c4fe-4bec-9a16-bcba52fdd322{fill:#23237c;}.a8d3806d-b7b9-4a43-ab90-2186d5e62530{fill:#1d1d82;}.a464dc81-0698-4bf2-a646-c4d3066eeb4e{fill:#0a0a86;}</style><clipPath id="eaab8021-0577-4d6e-9969-1238812b6765"><path class="a2c89b7d-97cd-4ee8-8327-85cf97e025fb" d="M53.31,2.82,10.76,26.73A20.44,20.44,0,0,0,.33,44.55l0,47a20.45,20.45,0,0,0,10.41,17.84l42.52,24a20.45,20.45,0,0,0,20.06,0l42.55-23.91A20.44,20.44,0,0,0,126.27,91.6l0-47a20.45,20.45,0,0,0-10.41-17.84l-42.52-24A20.45,20.45,0,0,0,53.31,2.82Z"/></clipPath></defs><title>inveltio concept 2 just icon</title><g class="b7cfe466-b63b-4c56-a2c1-ef16f7b61e9e"><polygon class="a0c36f06-43db-4e81-9797-46b2ed673aab" points="57.85 189.91 55.24 191.37 -37.74 34.16 -35.12 32.7 57.85 189.91"/><polygon class="b506bcff-0608-4caa-8e0a-8579bba28720" points="69.75 183.22 65.64 185.53 -27.33 28.32 -23.23 26.01 69.75 183.22"/><polygon class="bfb565cc-49df-4daf-8e80-cd04f99c1df6" points="81.64 176.54 76.68 179.32 -16.3 22.12 -11.33 19.33 81.64 176.54"/><polygon class="a806a4ea-7d97-4197-8b31-8ad653709aa7" points="93.53 169.85 87.85 173.05 -5.12 15.84 0.56 12.64 93.53 169.85"/><polygon class="abbee553-1304-4eeb-8056-33afa1471d65" points="105.43 163.17 99.3 166.62 6.32 9.41 12.46 5.96 105.43 163.17"/><polygon class="b29dabc2-298c-4a19-8c61-9f8c0feeaa8d" points="117.33 156.48 110.29 160.44 17.32 3.23 24.35 -0.72 117.33 156.48"/><polygon class="aa8f7dbb-554c-411f-b2df-002f43222590" points="129.22 149.8 121.61 154.07 28.64 -3.13 36.25 -7.41 129.22 149.8"/><polygon class="b5f6feb7-a333-47eb-a727-c180df783352" points="141.12 143.12 133.06 147.64 40.09 -9.57 48.14 -14.09 141.12 143.12"/><polygon class="a47f2243-c4fe-4bec-9a16-bcba52fdd322" points="153.01 136.43 144.85 141.01 51.88 -16.19 60.04 -20.78 153.01 136.43"/><polygon class="a8d3806d-b7b9-4a43-ab90-2186d5e62530" points="164.91 129.75 156.52 134.46 63.55 -22.75 71.93 -27.46 164.91 129.75"/><polygon class="a464dc81-0698-4bf2-a646-c4d3066eeb4e" points="176.8 123.06 168.02 128 75.05 -29.21 83.83 -34.15 176.8 123.06"/></g></svg>